<svg width="22" height="24" viewBox="0 0 22 24" fill="none" xmlns="http://www.w3.org/2000/svg">
<g id="Add User">
<path id="Stroke 1" fill-rule="evenodd" clip-rule="evenodd" d="M8.7491 22.6256C4.61727 22.6256 1.08777 22.0006 1.08777 19.4981C1.08777 16.9956 4.59452 14.7195 8.7491 14.7195C12.8809 14.7195 16.4104 16.9739 16.4104 19.4753C16.4104 21.9767 12.9037 22.6256 8.7491 22.6256Z" stroke="white" stroke-width="1.5" stroke-linecap="round" stroke-linejoin="round"/>
<path id="Stroke 3" fill-rule="evenodd" clip-rule="evenodd" d="M8.74916 11.1507C11.4607 11.1507 13.6599 8.9515 13.6599 6.23991C13.6599 3.52725 11.4607 1.32916 8.74916 1.32916C6.03758 1.32916 3.83841 3.52725 3.83841 6.23991C3.82866 8.94175 6.01266 11.1409 8.71449 11.1507H8.74916Z" stroke="white" stroke-width="1.5" stroke-linecap="round" stroke-linejoin="round"/>
<path id="Stroke 5" d="M18.7255 7.80652V12.1507" stroke="white" stroke-width="1.5" stroke-linecap="round" stroke-linejoin="round"/>
<path id="Stroke 7" d="M20.9423 9.97837H16.5115" stroke="white" stroke-width="1.5" stroke-linecap="round" stroke-linejoin="round"/>
</g>
</svg>
