<svg width="21" height="23" viewBox="0 0 21 23" fill="none" xmlns="http://www.w3.org/2000/svg">
<g id="Setting">
<path id="Stroke 1" fill-rule="evenodd" clip-rule="evenodd" d="M10.5 8.89587C11.9385 8.89587 13.1042 10.0616 13.1042 11.5C13.1042 12.9385 11.9385 14.1042 10.5 14.1042C9.06162 14.1042 7.89587 12.9385 7.89587 11.5C7.89587 10.0616 9.06162 8.89587 10.5 8.89587Z" stroke="#A0A3B1" stroke-width="1.5" stroke-linecap="round" stroke-linejoin="round"/>
<path id="Stroke 3" fill-rule="evenodd" clip-rule="evenodd" d="M19.0084 6.55236V6.55236C18.2963 5.31043 16.7201 4.88548 15.4881 5.60265C14.4165 6.22516 13.0772 5.44625 13.0772 4.2002C13.0772 2.76689 11.9228 1.60419 10.4998 1.60419V1.60419C9.07676 1.60419 7.9224 2.76689 7.9224 4.2002C7.9224 5.44625 6.58313 6.22516 5.51253 5.60265C4.27951 4.88548 2.70324 5.31043 1.99121 6.55236C1.28021 7.79429 1.70211 9.38195 2.93514 10.0981C4.00573 10.7216 4.00573 12.2784 2.93514 12.902C1.70211 13.6191 1.28021 15.2068 1.99121 16.4477C2.70324 17.6896 4.27951 18.1146 5.51151 17.3984H5.51253C6.58313 16.7749 7.9224 17.5538 7.9224 18.7998V18.7998C7.9224 20.2332 9.07676 21.3959 10.4998 21.3959V21.3959C11.9228 21.3959 13.0772 20.2332 13.0772 18.7998V18.7998C13.0772 17.5538 14.4165 16.7749 15.4881 17.3984C16.7201 18.1146 18.2963 17.6896 19.0084 16.4477C19.7204 15.2068 19.2975 13.6191 18.0655 12.902H18.0645C16.9939 12.2784 16.9939 10.7216 18.0655 10.0981C19.2975 9.38195 19.7204 7.79429 19.0084 6.55236Z" stroke="#A0A3B1" stroke-width="1.5" stroke-linecap="round" stroke-linejoin="round"/>
</g>
</svg>
