<svg width="414" height="504" viewBox="0 0 414 504" fill="none" xmlns="http://www.w3.org/2000/svg">
<g clip-path="url(#clip0_0_1489)">
<path d="M0 -1V381.053C0 381.053 32.2351 449.788 115.112 441.811C197.989 433.835 215.177 390.876 315.243 470.049C315.243 470.049 350.543 503.185 415 501.967V-1H0Z" fill="#F2F3F7"/>
<path d="M402.149 504C349.355 504 318.072 479.662 317.738 479.381C255.185 430.238 216.838 439.61 163.778 452.6C149.705 456.044 135.138 459.609 118.529 462.6C37.3493 477.232 -2.59944 434.67 -3 434.229L-2.01196 433.335C-1.62476 433.762 37.8967 475.777 118.275 461.291C134.858 458.301 149.385 454.749 163.444 451.305C216.878 438.235 255.478 428.796 318.553 478.34C318.94 478.647 356.899 508.152 419.853 501.757L419.987 503.079C413.805 503.72 407.85 504 402.149 504Z" fill="#F2F3F7"/>
</g>
<defs>
<clipPath id="clip0_0_1489">
<rect width="423" height="504" fill="white" transform="translate(-3)"/>
</clipPath>
</defs>
</svg>
